<?xml version="1.0" encoding="UTF-8" standalone="no"?>
<svg
   version="1.1"
   id="Layer_1"
   x="0px"
   y="0px"
   xml:space="preserve"
   viewBox="59.18 12.38 256.8 249.00001"
   sodipodi:docname="Apptainer-markup-cropped-large.svg"
   inkscape:version="1.2 (dc2aedaf03, 2022-05-15)"
   width="256.79999"
   height="249"
   xmlns:inkscape="http://www.inkscape.org/namespaces/inkscape"
   xmlns:sodipodi="http://sodipodi.sourceforge.net/DTD/sodipodi-0.dtd"
   xmlns="http://www.w3.org/2000/svg"
   xmlns:svg="http://www.w3.org/2000/svg"><defs
   id="defs34" /><sodipodi:namedview
   id="namedview32"
   pagecolor="#ffffff"
   bordercolor="#000000"
   borderopacity="0.25"
   inkscape:showpageshadow="2"
   inkscape:pageopacity="0.0"
   inkscape:pagecheckerboard="0"
   inkscape:deskcolor="#d1d1d1"
   showgrid="false"
   inkscape:zoom="6.4567943"
   inkscape:cx="105.62517"
   inkscape:cy="64.970322"
   inkscape:window-width="3200"
   inkscape:window-height="1261"
   inkscape:window-x="2391"
   inkscape:window-y="-9"
   inkscape:window-maximized="1"
   inkscape:current-layer="Layer_1" /> <style
   type="text/css"
   id="style19"> 	.st0{fill:#939598;} 	.st1{fill:#F79421;} 	.st2{fill:#1E95D3;} 	.st3{fill:#6FB544;} </style> <path
   d="m 270.18,253.98 c -1.8,-1.2 -3.4,-3 -4.4,-5.2 l -52.6,-117.4 c -2.2,-4.8 -3.8,-8.6 -5.2,-11.6 -2.2,-4.4 -2.2,-5.6 -2.2,-6.4 0,-2.2 0.8,-3.8 2.6,-4.8 v -4.4 h -43.2 v 4.4 c 0.8,0.4 1.2,1.2 1.8,1.8 0.4,0.8 0.8,1.8 0.8,3 0,1.2 -0.4,3 -1.8,5.6 -1.2,2.6 -2.6,5.6 -4.4,9.4 l -51.8,117 c -0.8,1.8 -2.2,4.4 -3.8,7.4 -1.8,3 -4.8,4.4 -8.2,4.8 v 3.8 h 49.6 v -3.8 c -5.6,0 -8.2,-2.2 -8.2,-5.6 0,-1.8 0.8,-4.8 3,-9 1.8,-3.4 3.8,-7.8 5.6,-12 24.6,9.4 52.2,10 76.8,0.8 2.2,4.4 3.8,8.2 5.2,11.2 1.8,3.4 2.6,6.4 2.6,8.6 0,2.2 -0.8,3.8 -2.2,4.8 -1.2,0.4 -2.2,0.8 -3.4,1.2 v 3.8 h 50.4 v -3.8 c -2.8,-1.8 -5.4,-2.8 -7,-3.6 z m -111.4,-47 27.6,-61.4 28,62.2 c -18,6 -37.4,6 -55.6,-0.8 z"
   id="path21"
   style="stroke-width:2" /> <path
   class="st0"
   d="m 89.78,140.98 c 0,-9 1.2,-17.6 3.4,-26.4 l -28,-12.6 c -3.8,12 -6,24.6 -6,37.6 0,35 14.2,68.6 39.8,92.8 l 1.8,-3.4 11.2,-25.4 c -13.6,-17.4 -22.2,-39 -22.2,-62.6 z"
   id="path23"
   style="stroke-width:2" /> <path
   class="st1"
   d="m 310.18,102.58 -28,12.6 c 2.2,8.2 3.4,16.8 3.4,25.8 0,23.8 -8.6,45.8 -22.8,62.6 l 11.6,25.4 1.8,3.4 c 25.4,-24.2 39.8,-57.8 39.8,-92.8 -0.2,-12.4 -2.2,-25 -5.8,-37 z"
   id="path25"
   style="stroke-width:2" /> <path
   class="st2"
   d="m 71.18,86.98 27.6,12.6 c 14.6,-31 44.8,-53 80.2,-56.2 v -30.6 c -46,2.6 -88.4,31.4 -107.8,74.2 z"
   id="path27"
   style="stroke-width:2" /> <path
   class="st3"
   d="m 304.18,86.98 c -19.4,-42.8 -61.8,-71.6 -108.4,-74.6 v 30.6 c 35.8,3 66,25 80.6,56.2 z"
   id="path29"
   style="stroke-width:2" /> </svg>
